<?xml version="1.0" encoding="UTF-8" standalone="no"?>
<svg width="12px" height="12px" viewBox="0 0 12 12" version="1.1" xmlns="http://www.w3.org/2000/svg" xmlns:xlink="http://www.w3.org/1999/xlink" xmlns:sketch="http://www.bohemiancoding.com/sketch/ns">
    <title>Checked Checkbox</title>
    <defs></defs>
    <g id="Page-1" stroke="none" stroke-width="1" fill="none" fill-rule="evenodd" sketch:type="MSPage">
        <g id="Checked-Checkbox" sketch:type="MSArtboardGroup" fill="#dedede">
            <g id="Check" sketch:type="MSLayerGroup">
                <path d="M5.37021513,7.63306761 L8.56061829,3.07669969 C8.75953836,2.79261239 9.14854929,2.72178945 9.4339114,2.92160215 C9.7172978,3.12003145 9.78327842,3.51474862 9.58685123,3.79527573 L5.9957483,8.92390222 C5.87377597,9.09809676 5.68033315,9.19210804 5.4831389,9.19270962 C5.30248176,9.21044789 5.11623426,9.1508122 4.98147933,9.01605727 L2.79048463,6.82506257 C2.54748037,6.58205831 2.54708815,6.18846279 2.79341786,5.94213307 C3.0380421,5.69750884 3.43784552,5.700698 3.67634736,5.93919984 L5.37021513,7.63306761 L5.37021513,7.63306761 Z" id="Shape" sketch:type="MSShapeGroup"></path>
                <g id="Box" sketch:type="MSShapeGroup">
                    <path d="M0,2.99715203 C0,1.34187067 1.34162278,0 2.99715203,0 L9.00284797,0 C10.6581293,0 12,1.34162278 12,2.99715203 L12,9.00284797 C12,10.6581293 10.6583772,12 9.00284797,12 L2.99715203,12 C1.34187067,12 0,10.6583772 0,9.00284797 L0,2.99715203 L0,2.99715203 Z M1,2.99961498 C1,1.89525812 1.88743329,1 2.99961498,1 L9.00038502,1 C10.1047419,1 11,1.88743329 11,2.99961498 L11,9.00038502 C11,10.1047419 10.1125667,11 9.00038502,11 L2.99961498,11 C1.89525812,11 1,10.1125667 1,9.00038502 L1,2.99961498 L1,2.99961498 Z" id="Rectangle-1"></path>
                </g>
            </g>
        </g>
    </g>
</svg>
